{
	"asset":{
		"generator":"Khronos glTF Blender I/O v5.1.19",
		"version":"2.0"
	},
	"scene":0,
	"scenes":[
		{
			"name":"Scene",
			"nodes":[
				0,
				1,
				2
			]
		}
	],
	"nodes":[
		{
			"mesh":0,
			"name":"Cube",
			"scale":[
				0.1812725067138672,
				1,
				2.252804756164551
			],
			"translation":[
				0,
				2.238835334777832,
				0
			]
		},
		{
			"mesh":1,
			"name":"Cylinder",
			"scale":[
				0.09611427783966064,
				0.7377813458442688,
				0.09611427783966064
			],
			"translation":[
				0,
				0.6679657697677612,
				-1.6558386087417603
			]
		},
		{
			"mesh":2,
			"name":"Cube.001",
			"scale":[
				1.5512202978134155,
				0.6486789584159851,
				0.6486789584159851
			],
			"translation":[
				-0.26090848445892334,
				2.324129581451416,
				0
			]
		}
	],
	"materials":[
		{
			"doubleSided":true,
			"name":"Material",
			"pbrMetallicRoughness":{
				"baseColorFactor":[
					0.03389627858996391,
					0.03389627858996391,
					0.03389627858996391,
					1
				],
				"metallicFactor":0,
				"roughnessFactor":0.9422110319137573
			}
		},
		{
			"doubleSided":true,
			"name":"Material.002",
			"pbrMetallicRoughness":{
				"baseColorFactor":[
					0,
					0,
					0,
					1
				],
				"metallicFactor":0,
				"roughnessFactor":0.5
			}
		},
		{
			"doubleSided":true,
			"name":"Material.001",
			"pbrMetallicRoughness":{
				"baseColorFactor":[
					0.8000074625015259,
					0.5434290766716003,
					0.15265090763568878,
					1
				],
				"metallicFactor":0,
				"roughnessFactor":0.5
			}
		}
	],
	"meshes":[
		{
			"name":"Cube",
			"primitives":[
				{
					"attributes":{
						"POSITION":0,
						"NORMAL":1,
						"TEXCOORD_0":2,
						"TANGENT":3
					},
					"indices":4,
					"material":0
				},
				{
					"attributes":{
						"POSITION":5,
						"NORMAL":6,
						"TEXCOORD_0":7,
						"TANGENT":8
					},
					"indices":9,
					"material":1
				}
			]
		},
		{
			"name":"Cylinder",
			"primitives":[
				{
					"attributes":{
						"POSITION":10,
						"NORMAL":11,
						"TEXCOORD_0":12
					},
					"indices":13,
					"material":0
				}
			]
		},
		{
			"name":"Cube.001",
			"primitives":[
				{
					"attributes":{
						"POSITION":14,
						"NORMAL":15,
						"TEXCOORD_0":16,
						"TANGENT":17
					},
					"indices":18,
					"material":2
				}
			]
		}
	],
	"accessors":[
		{
			"bufferView":0,
			"componentType":5126,
			"count":80,
			"max":[
				1,
				1,
				1
			],
			"min":[
				-1,
				-1,
				-1
			],
			"type":"VEC3"
		},
		{
			"bufferView":1,
			"componentType":5126,
			"count":80,
			"type":"VEC3"
		},
		{
			"bufferView":2,
			"componentType":5126,
			"count":80,
			"type":"VEC2"
		},
		{
			"bufferView":3,
			"componentType":5126,
			"count":80,
			"type":"VEC4"
		},
		{
			"bufferView":4,
			"componentType":5123,
			"count":144,
			"type":"SCALAR"
		},
		{
			"bufferView":5,
			"componentType":5126,
			"count":8,
			"max":[
				0.6042823791503906,
				0.8979170322418213,
				0.9524521231651306
			],
			"min":[
				-0.6042823791503906,
				-0.8979170322418213,
				-0.9524521231651306
			],
			"type":"VEC3"
		},
		{
			"bufferView":6,
			"componentType":5126,
			"count":8,
			"type":"VEC3"
		},
		{
			"bufferView":7,
			"componentType":5126,
			"count":8,
			"type":"VEC2"
		},
		{
			"bufferView":8,
			"componentType":5126,
			"count":8,
			"type":"VEC4"
		},
		{
			"bufferView":9,
			"componentType":5123,
			"count":12,
			"type":"SCALAR"
		},
		{
			"bufferView":10,
			"componentType":5126,
			"count":384,
			"max":[
				1,
				1,
				35.45561981201172
			],
			"min":[
				-1,
				-1,
				-1
			],
			"type":"VEC3"
		},
		{
			"bufferView":11,
			"componentType":5126,
			"count":384,
			"type":"VEC3"
		},
		{
			"bufferView":12,
			"componentType":5126,
			"count":384,
			"type":"VEC2"
		},
		{
			"bufferView":13,
			"componentType":5123,
			"count":744,
			"type":"SCALAR"
		},
		{
			"bufferView":14,
			"componentType":5126,
			"count":144,
			"max":[
				0.2936788499355316,
				0.8473587036132812,
				2.624345541000366
			],
			"min":[
				0.03299400210380554,
				-1.1526412963867188,
				-2.400238275527954
			],
			"type":"VEC3"
		},
		{
			"bufferView":15,
			"componentType":5126,
			"count":144,
			"type":"VEC3"
		},
		{
			"bufferView":16,
			"componentType":5126,
			"count":144,
			"type":"VEC2"
		},
		{
			"bufferView":17,
			"componentType":5126,
			"count":144,
			"type":"VEC4"
		},
		{
			"bufferView":18,
			"componentType":5123,
			"count":240,
			"type":"SCALAR"
		}
	],
	"bufferViews":[
		{
			"buffer":0,
			"byteLength":960,
			"byteOffset":0,
			"target":34962
		},
		{
			"buffer":0,
			"byteLength":960,
			"byteOffset":960,
			"target":34962
		},
		{
			"buffer":0,
			"byteLength":640,
			"byteOffset":1920,
			"target":34962
		},
		{
			"buffer":0,
			"byteLength":1280,
			"byteOffset":2560,
			"target":34962
		},
		{
			"buffer":0,
			"byteLength":288,
			"byteOffset":3840,
			"target":34963
		},
		{
			"buffer":0,
			"byteLength":96,
			"byteOffset":4128,
			"target":34962
		},
		{
			"buffer":0,
			"byteLength":96,
			"byteOffset":4224,
			"target":34962
		},
		{
			"buffer":0,
			"byteLength":64,
			"byteOffset":4320,
			"target":34962
		},
		{
			"buffer":0,
			"byteLength":128,
			"byteOffset":4384,
			"target":34962
		},
		{
			"buffer":0,
			"byteLength":24,
			"byteOffset":4512,
			"target":34963
		},
		{
			"buffer":0,
			"byteLength":4608,
			"byteOffset":4536,
			"target":34962
		},
		{
			"buffer":0,
			"byteLength":4608,
			"byteOffset":9144,
			"target":34962
		},
		{
			"buffer":0,
			"byteLength":3072,
			"byteOffset":13752,
			"target":34962
		},
		{
			"buffer":0,
			"byteLength":1488,
			"byteOffset":16824,
			"target":34963
		},
		{
			"buffer":0,
			"byteLength":1728,
			"byteOffset":18312,
			"target":34962
		},
		{
			"buffer":0,
			"byteLength":1728,
			"byteOffset":20040,
			"target":34962
		},
		{
			"buffer":0,
			"byteLength":1152,
			"byteOffset":21768,
			"target":34962
		},
		{
			"buffer":0,
			"byteLength":2304,
			"byteOffset":22920,
			"target":34962
		},
		{
			"buffer":0,
			"byteLength":480,
			"byteOffset":25224,
			"target":34963
		}
	],
	"buffers":[
		{
			"byteLength":25704,
			"uri":"arrowSign-05caa08e7cafc16716f882eed02c8874.bin"
		}
	]
}
