{
	"asset":{
		"generator":"Khronos glTF Blender I/O v5.1.19",
		"version":"2.0"
	},
	"scene":0,
	"scenes":[
		{
			"name":"Scene",
			"nodes":[
				0,
				1,
				2,
				3,
				4,
				5,
				6,
				7
			]
		}
	],
	"nodes":[
		{
			"mesh":0,
			"name":"Body",
			"scale":[
				0.9180372357368469,
				1,
				1
			]
		},
		{
			"mesh":1,
			"name":"Front Lights",
			"scale":[
				0.24173472821712494,
				0.11937201023101807,
				0.11937201023101807
			],
			"translation":[
				-0.6264693737030029,
				-0.3013142943382263,
				-2.0692214965820312
			]
		},
		{
			"mesh":2,
			"name":"Rear Lights",
			"scale":[
				0.22055082023143768,
				0.1243540570139885,
				0.1243540570139885
			],
			"translation":[
				-0.6498814225196838,
				-0.1745939701795578,
				0.9671615362167358
			]
		},
		{
			"mesh":3,
			"name":"Front Bumper",
			"scale":[
				0.8971630334854126,
				0.1636219471693039,
				0.14893819391727448
			],
			"translation":[
				0,
				-0.5119878649711609,
				-2.054586410522461
			]
		},
		{
			"mesh":4,
			"name":"Side Skirts",
			"scale":[
				0.16188323497772217,
				0.16188323497772217,
				0.16188323497772217
			],
			"translation":[
				-0.6728453040122986,
				-0.6385793685913086,
				-0.43986397981643677
			]
		},
		{
			"mesh":5,
			"name":"Read Bumper",
			"scale":[
				0.870725691318512,
				0.13019315898418427,
				0.13019315898418427
			],
			"translation":[
				0,
				-0.6079204678535461,
				1.03251051902771
			]
		},
		{
			"mesh":6,
			"name":"Exhaust",
			"rotation":[
				0.7071068286895752,
				0,
				0,
				0.7071068286895752
			],
			"scale":[
				0.06003212183713913,
				0.06003212183713913,
				0.06003212183713913
			],
			"translation":[
				0.5681511163711548,
				-0.681744396686554,
				1.101565957069397
			]
		},
		{
			"mesh":7,
			"name":"Plate",
			"rotation":[
				-0.08404959738254547,
				0,
				0,
				0.9964615702629089
			],
			"translation":[
				0,
				-0.2916063368320465,
				1.0192406177520752
			]
		}
	],
	"materials":[
		{
			"doubleSided":true,
			"name":"BobyMetal",
			"pbrMetallicRoughness":{
				"baseColorFactor":[
					0.16504572331905365,
					0.08900809288024902,
					0.014878850430250168,
					1
				],
				"metallicFactor":0.23618090152740479,
				"roughnessFactor":0.520100474357605
			}
		},
		{
			"doubleSided":true,
			"name":"PanelPlastic",
			"pbrMetallicRoughness":{
				"baseColorFactor":[
					0.006687209941446781,
					0.006687209941446781,
					0.006687209941446781,
					1
				],
				"metallicFactor":0
			}
		},
		{
			"doubleSided":true,
			"name":"Glass",
			"pbrMetallicRoughness":{
				"baseColorFactor":[
					0.07242608070373535,
					0.0730966180562973,
					0.07512988895177841,
					1
				],
				"metallicFactor":0.4673366844654083,
				"roughnessFactor":0.21859297156333923
			}
		},
		{
			"doubleSided":true,
			"name":"Headlights",
			"pbrMetallicRoughness":{
				"baseColorFactor":[
					0.8000074625015259,
					0.6373075246810913,
					0.15849928557872772,
					1
				],
				"metallicFactor":0.1306532621383667,
				"roughnessFactor":0.5
			}
		},
		{
			"doubleSided":true,
			"name":"BlinkerPlastic",
			"pbrMetallicRoughness":{
				"baseColorFactor":[
					0.8000074625015259,
					0.28407251834869385,
					0.03245681896805763,
					1
				],
				"metallicFactor":0.17587940394878387,
				"roughnessFactor":0.5778894424438477
			}
		},
		{
			"doubleSided":true,
			"name":"RearLight",
			"pbrMetallicRoughness":{
				"baseColorFactor":[
					0.3907787799835205,
					0,
					0.0032972260378301144,
					1
				],
				"metallicFactor":0,
				"roughnessFactor":0.5
			}
		},
		{
			"doubleSided":true,
			"name":"ReverseLight",
			"pbrMetallicRoughness":{
				"baseColorFactor":[
					0.6656562089920044,
					0.6656562089920044,
					0.6656562089920044,
					1
				],
				"metallicFactor":0.12060301750898361,
				"roughnessFactor":0.5
			}
		},
		{
			"doubleSided":true,
			"name":"Metal",
			"pbrMetallicRoughness":{
				"baseColorFactor":[
					0.07512988895177841,
					0.07512988895177841,
					0.07512988895177841,
					1
				],
				"metallicFactor":0,
				"roughnessFactor":0.5
			}
		},
		{
			"doubleSided":true,
			"name":"Darkness",
			"pbrMetallicRoughness":{
				"baseColorFactor":[
					0,
					0,
					0,
					1
				],
				"metallicFactor":0
			}
		},
		{
			"doubleSided":true,
			"name":"PlateWhite",
			"pbrMetallicRoughness":{
				"baseColorFactor":[
					0.800000011920929,
					0.800000011920929,
					0.800000011920929,
					1
				],
				"metallicFactor":0,
				"roughnessFactor":0.5
			}
		},
		{
			"doubleSided":true,
			"name":"PlateBlue",
			"pbrMetallicRoughness":{
				"baseColorFactor":[
					0.03495648130774498,
					0.041298747062683105,
					0.8000156879425049,
					1
				],
				"metallicFactor":0,
				"roughnessFactor":0.5
			}
		}
	],
	"meshes":[
		{
			"name":"Cube",
			"primitives":[
				{
					"attributes":{
						"POSITION":0,
						"NORMAL":1,
						"TEXCOORD_0":2
					},
					"indices":3,
					"material":0
				},
				{
					"attributes":{
						"POSITION":4,
						"NORMAL":5,
						"TEXCOORD_0":6
					},
					"indices":7,
					"material":1
				},
				{
					"attributes":{
						"POSITION":8,
						"NORMAL":9,
						"TEXCOORD_0":10
					},
					"indices":11,
					"material":2
				}
			]
		},
		{
			"name":"Cube.003",
			"primitives":[
				{
					"attributes":{
						"POSITION":12,
						"NORMAL":13,
						"TEXCOORD_0":14
					},
					"indices":15,
					"material":3
				},
				{
					"attributes":{
						"POSITION":16,
						"NORMAL":17,
						"TEXCOORD_0":18
					},
					"indices":19,
					"material":4
				}
			]
		},
		{
			"name":"Cube.004",
			"primitives":[
				{
					"attributes":{
						"POSITION":20,
						"NORMAL":21,
						"TEXCOORD_0":22,
						"TANGENT":23
					},
					"indices":24,
					"material":5
				},
				{
					"attributes":{
						"POSITION":25,
						"NORMAL":26,
						"TEXCOORD_0":27,
						"TANGENT":28
					},
					"indices":29,
					"material":6
				},
				{
					"attributes":{
						"POSITION":30,
						"NORMAL":31,
						"TEXCOORD_0":32,
						"TANGENT":33
					},
					"indices":34,
					"material":4
				}
			]
		},
		{
			"name":"Cube.001",
			"primitives":[
				{
					"attributes":{
						"POSITION":35,
						"NORMAL":36,
						"TEXCOORD_0":37
					},
					"indices":38,
					"material":1
				}
			]
		},
		{
			"name":"Cube.002",
			"primitives":[
				{
					"attributes":{
						"POSITION":39,
						"NORMAL":40,
						"TEXCOORD_0":41,
						"TANGENT":42
					},
					"indices":43,
					"material":1
				}
			]
		},
		{
			"name":"Cube.005",
			"primitives":[
				{
					"attributes":{
						"POSITION":44,
						"NORMAL":45,
						"TEXCOORD_0":46,
						"TANGENT":47
					},
					"indices":48,
					"material":1
				}
			]
		},
		{
			"name":"Cylinder",
			"primitives":[
				{
					"attributes":{
						"POSITION":49,
						"NORMAL":50,
						"TEXCOORD_0":51
					},
					"indices":52,
					"material":7
				},
				{
					"attributes":{
						"POSITION":53,
						"NORMAL":54,
						"TEXCOORD_0":55
					},
					"indices":56,
					"material":8
				}
			]
		},
		{
			"name":"Cube.006",
			"primitives":[
				{
					"attributes":{
						"POSITION":57,
						"NORMAL":58,
						"TEXCOORD_0":59
					},
					"indices":60,
					"material":1
				},
				{
					"attributes":{
						"POSITION":61,
						"NORMAL":62,
						"TEXCOORD_0":63
					},
					"indices":64,
					"material":9
				},
				{
					"attributes":{
						"POSITION":65,
						"NORMAL":66,
						"TEXCOORD_0":67
					},
					"indices":68,
					"material":10
				}
			]
		}
	],
	"accessors":[
		{
			"bufferView":0,
			"componentType":5126,
			"count":1062,
			"max":[
				0.9090684652328491,
				0.47949153184890747,
				1.0666395425796509
			],
			"min":[
				-0.9090684652328491,
				-0.7830986976623535,
				-2.1596760749816895
			],
			"type":"VEC3"
		},
		{
			"bufferView":1,
			"componentType":5126,
			"count":1062,
			"type":"VEC3"
		},
		{
			"bufferView":2,
			"componentType":5126,
			"count":1062,
			"type":"VEC2"
		},
		{
			"bufferView":3,
			"componentType":5123,
			"count":3144,
			"type":"SCALAR"
		},
		{
			"bufferView":4,
			"componentType":5126,
			"count":6,
			"max":[
				0.3467002511024475,
				-0.1296958178281784,
				1.0333197116851807
			],
			"min":[
				-0.3467002511024475,
				-0.19577467441558838,
				1.02207350730896
			],
			"type":"VEC3"
		},
		{
			"bufferView":5,
			"componentType":5126,
			"count":6,
			"type":"VEC3"
		},
		{
			"bufferView":6,
			"componentType":5126,
			"count":6,
			"type":"VEC2"
		},
		{
			"bufferView":7,
			"componentType":5123,
			"count":12,
			"type":"SCALAR"
		},
		{
			"bufferView":8,
			"componentType":5126,
			"count":44,
			"max":[
				0.8874879479408264,
				0.383421391248703,
				0.9573668241500854
			],
			"min":[
				-0.8874879479408264,
				-0.005539698526263237,
				-0.9685021042823792
			],
			"type":"VEC3"
		},
		{
			"bufferView":9,
			"componentType":5126,
			"count":44,
			"type":"VEC3"
		},
		{
			"bufferView":10,
			"componentType":5126,
			"count":44,
			"type":"VEC2"
		},
		{
			"bufferView":11,
			"componentType":5123,
			"count":96,
			"type":"SCALAR"
		},
		{
			"bufferView":12,
			"componentType":5126,
			"count":70,
			"max":[
				6.060756206512451,
				1.0989996194839478,
				1.3171006441116333
			],
			"min":[
				-0.8776415586471558,
				-0.44505542516708374,
				-0.7927374839782715
			],
			"type":"VEC3"
		},
		{
			"bufferView":13,
			"componentType":5126,
			"count":70,
			"type":"VEC3"
		},
		{
			"bufferView":14,
			"componentType":5126,
			"count":70,
			"type":"VEC2"
		},
		{
			"bufferView":15,
			"componentType":5123,
			"count":276,
			"type":"SCALAR"
		},
		{
			"bufferView":16,
			"componentType":5126,
			"count":58,
			"max":[
				6.06016731262207,
				1.0989996194839478,
				1.3171006441116333
			],
			"min":[
				-0.8770525455474854,
				-0.44505542516708374,
				0.4923079311847687
			],
			"type":"VEC3"
		},
		{
			"bufferView":17,
			"componentType":5126,
			"count":58,
			"type":"VEC3"
		},
		{
			"bufferView":18,
			"componentType":5126,
			"count":58,
			"type":"VEC2"
		},
		{
			"bufferView":19,
			"componentType":5123,
			"count":156,
			"type":"SCALAR"
		},
		{
			"bufferView":20,
			"componentType":5126,
			"count":96,
			"max":[
				6.409004211425781,
				0.37928682565689087,
				0.8633809685707092
			],
			"min":[
				-0.5157471895217896,
				-1.365248203277588,
				-0.09342818707227707
			],
			"type":"VEC3"
		},
		{
			"bufferView":21,
			"componentType":5126,
			"count":96,
			"type":"VEC3"
		},
		{
			"bufferView":22,
			"componentType":5126,
			"count":96,
			"type":"VEC2"
		},
		{
			"bufferView":23,
			"componentType":5126,
			"count":96,
			"type":"VEC4"
		},
		{
			"bufferView":24,
			"componentType":5123,
			"count":276,
			"type":"SCALAR"
		},
		{
			"bufferView":25,
			"componentType":5126,
			"count":48,
			"max":[
				5.695629596710205,
				0.37928682565689087,
				0.8633809685707092
			],
			"min":[
				0.1976277232170105,
				-1.365248203277588,
				-0.09342818707227707
			],
			"type":"VEC3"
		},
		{
			"bufferView":26,
			"componentType":5126,
			"count":48,
			"type":"VEC3"
		},
		{
			"bufferView":27,
			"componentType":5126,
			"count":48,
			"type":"VEC2"
		},
		{
			"bufferView":28,
			"componentType":5126,
			"count":48,
			"type":"VEC4"
		},
		{
			"bufferView":29,
			"componentType":5123,
			"count":96,
			"type":"SCALAR"
		},
		{
			"bufferView":30,
			"componentType":5126,
			"count":66,
			"max":[
				6.788253307342529,
				0.37928682565689087,
				0.8633809685707092
			],
			"min":[
				-0.8949964046478271,
				-1.365248203277588,
				-0.09342818707227707
			],
			"type":"VEC3"
		},
		{
			"bufferView":31,
			"componentType":5126,
			"count":66,
			"type":"VEC3"
		},
		{
			"bufferView":32,
			"componentType":5126,
			"count":66,
			"type":"VEC2"
		},
		{
			"bufferView":33,
			"componentType":5126,
			"count":66,
			"type":"VEC4"
		},
		{
			"bufferView":34,
			"componentType":5123,
			"count":180,
			"type":"SCALAR"
		},
		{
			"bufferView":35,
			"componentType":5126,
			"count":302,
			"max":[
				0.9913684129714966,
				2.0207877159118652,
				4.354568004608154
			],
			"min":[
				-0.9913684129714966,
				-1.1910244226455688,
				-1.0509889125823975
			],
			"type":"VEC3"
		},
		{
			"bufferView":36,
			"componentType":5126,
			"count":302,
			"type":"VEC3"
		},
		{
			"bufferView":37,
			"componentType":5126,
			"count":302,
			"type":"VEC2"
		},
		{
			"bufferView":38,
			"componentType":5123,
			"count":906,
			"type":"SCALAR"
		},
		{
			"bufferView":39,
			"componentType":5126,
			"count":144,
			"max":[
				9.380928993225098,
				-0.4612222909927368,
				4.038276672363281
			],
			"min":[
				-1.0682045221328735,
				-0.9534375667572021,
				-3.9286372661590576
			],
			"type":"VEC3"
		},
		{
			"bufferView":40,
			"componentType":5126,
			"count":144,
			"type":"VEC3"
		},
		{
			"bufferView":41,
			"componentType":5126,
			"count":144,
			"type":"VEC2"
		},
		{
			"bufferView":42,
			"componentType":5126,
			"count":144,
			"type":"VEC4"
		},
		{
			"bufferView":43,
			"componentType":5123,
			"count":264,
			"type":"SCALAR"
		},
		{
			"bufferView":44,
			"componentType":5126,
			"count":192,
			"max":[
				0.9890897870063782,
				1.148309588432312,
				0.930543839931488
			],
			"min":[
				-0.9890897870063782,
				-0.8626821637153625,
				-2.027536153793335
			],
			"type":"VEC3"
		},
		{
			"bufferView":45,
			"componentType":5126,
			"count":192,
			"type":"VEC3"
		},
		{
			"bufferView":46,
			"componentType":5126,
			"count":192,
			"type":"VEC2"
		},
		{
			"bufferView":47,
			"componentType":5126,
			"count":192,
			"type":"VEC4"
		},
		{
			"bufferView":48,
			"componentType":5123,
			"count":498,
			"type":"SCALAR"
		},
		{
			"bufferView":49,
			"componentType":5126,
			"count":259,
			"max":[
				1,
				1,
				1
			],
			"min":[
				-1,
				-2.853445529937744,
				-1.4875112771987915
			],
			"type":"VEC3"
		},
		{
			"bufferView":50,
			"componentType":5126,
			"count":259,
			"type":"VEC3"
		},
		{
			"bufferView":51,
			"componentType":5126,
			"count":259,
			"type":"VEC2"
		},
		{
			"bufferView":52,
			"componentType":5123,
			"count":858,
			"type":"SCALAR"
		},
		{
			"bufferView":53,
			"componentType":5126,
			"count":32,
			"max":[
				0.8451521396636963,
				0.8899075984954834,
				0.8451521396636963
			],
			"min":[
				-0.8451521396636963,
				0.8899075984954834,
				-0.8451521396636963
			],
			"type":"VEC3"
		},
		{
			"bufferView":54,
			"componentType":5126,
			"count":32,
			"type":"VEC3"
		},
		{
			"bufferView":55,
			"componentType":5126,
			"count":32,
			"type":"VEC2"
		},
		{
			"bufferView":56,
			"componentType":5123,
			"count":90,
			"type":"SCALAR"
		},
		{
			"bufferView":57,
			"componentType":5126,
			"count":136,
			"max":[
				0.24347138404846191,
				0.0691099762916565,
				0.014319791458547115
			],
			"min":[
				-0.24347138404846191,
				-0.0691099762916565,
				-0.014319791458547115
			],
			"type":"VEC3"
		},
		{
			"bufferView":58,
			"componentType":5126,
			"count":136,
			"type":"VEC3"
		},
		{
			"bufferView":59,
			"componentType":5126,
			"count":136,
			"type":"VEC2"
		},
		{
			"bufferView":60,
			"componentType":5123,
			"count":258,
			"type":"SCALAR"
		},
		{
			"bufferView":61,
			"componentType":5126,
			"count":8,
			"max":[
				0.23921574652194977,
				0.06485434621572495,
				0.011629887856543064
			],
			"min":[
				-0.1799613982439041,
				-0.06485434621572495,
				0.011629887856543064
			],
			"type":"VEC3"
		},
		{
			"bufferView":62,
			"componentType":5126,
			"count":8,
			"type":"VEC3"
		},
		{
			"bufferView":63,
			"componentType":5126,
			"count":8,
			"type":"VEC2"
		},
		{
			"bufferView":64,
			"componentType":5123,
			"count":18,
			"type":"SCALAR"
		},
		{
			"bufferView":65,
			"componentType":5126,
			"count":8,
			"max":[
				-0.17996136844158173,
				0.06485434621572495,
				0.011629887856543064
			],
			"min":[
				-0.23921574652194977,
				-0.06485434621572495,
				0.011629887856543064
			],
			"type":"VEC3"
		},
		{
			"bufferView":66,
			"componentType":5126,
			"count":8,
			"type":"VEC3"
		},
		{
			"bufferView":67,
			"componentType":5126,
			"count":8,
			"type":"VEC2"
		},
		{
			"bufferView":68,
			"componentType":5123,
			"count":18,
			"type":"SCALAR"
		}
	],
	"bufferViews":[
		{
			"buffer":0,
			"byteLength":12744,
			"byteOffset":0,
			"target":34962
		},
		{
			"buffer":0,
			"byteLength":12744,
			"byteOffset":12744,
			"target":34962
		},
		{
			"buffer":0,
			"byteLength":8496,
			"byteOffset":25488,
			"target":34962
		},
		{
			"buffer":0,
			"byteLength":6288,
			"byteOffset":33984,
			"target":34963
		},
		{
			"buffer":0,
			"byteLength":72,
			"byteOffset":40272,
			"target":34962
		},
		{
			"buffer":0,
			"byteLength":72,
			"byteOffset":40344,
			"target":34962
		},
		{
			"buffer":0,
			"byteLength":48,
			"byteOffset":40416,
			"target":34962
		},
		{
			"buffer":0,
			"byteLength":24,
			"byteOffset":40464,
			"target":34963
		},
		{
			"buffer":0,
			"byteLength":528,
			"byteOffset":40488,
			"target":34962
		},
		{
			"buffer":0,
			"byteLength":528,
			"byteOffset":41016,
			"target":34962
		},
		{
			"buffer":0,
			"byteLength":352,
			"byteOffset":41544,
			"target":34962
		},
		{
			"buffer":0,
			"byteLength":192,
			"byteOffset":41896,
			"target":34963
		},
		{
			"buffer":0,
			"byteLength":840,
			"byteOffset":42088,
			"target":34962
		},
		{
			"buffer":0,
			"byteLength":840,
			"byteOffset":42928,
			"target":34962
		},
		{
			"buffer":0,
			"byteLength":560,
			"byteOffset":43768,
			"target":34962
		},
		{
			"buffer":0,
			"byteLength":552,
			"byteOffset":44328,
			"target":34963
		},
		{
			"buffer":0,
			"byteLength":696,
			"byteOffset":44880,
			"target":34962
		},
		{
			"buffer":0,
			"byteLength":696,
			"byteOffset":45576,
			"target":34962
		},
		{
			"buffer":0,
			"byteLength":464,
			"byteOffset":46272,
			"target":34962
		},
		{
			"buffer":0,
			"byteLength":312,
			"byteOffset":46736,
			"target":34963
		},
		{
			"buffer":0,
			"byteLength":1152,
			"byteOffset":47048,
			"target":34962
		},
		{
			"buffer":0,
			"byteLength":1152,
			"byteOffset":48200,
			"target":34962
		},
		{
			"buffer":0,
			"byteLength":768,
			"byteOffset":49352,
			"target":34962
		},
		{
			"buffer":0,
			"byteLength":1536,
			"byteOffset":50120,
			"target":34962
		},
		{
			"buffer":0,
			"byteLength":552,
			"byteOffset":51656,
			"target":34963
		},
		{
			"buffer":0,
			"byteLength":576,
			"byteOffset":52208,
			"target":34962
		},
		{
			"buffer":0,
			"byteLength":576,
			"byteOffset":52784,
			"target":34962
		},
		{
			"buffer":0,
			"byteLength":384,
			"byteOffset":53360,
			"target":34962
		},
		{
			"buffer":0,
			"byteLength":768,
			"byteOffset":53744,
			"target":34962
		},
		{
			"buffer":0,
			"byteLength":192,
			"byteOffset":54512,
			"target":34963
		},
		{
			"buffer":0,
			"byteLength":792,
			"byteOffset":54704,
			"target":34962
		},
		{
			"buffer":0,
			"byteLength":792,
			"byteOffset":55496,
			"target":34962
		},
		{
			"buffer":0,
			"byteLength":528,
			"byteOffset":56288,
			"target":34962
		},
		{
			"buffer":0,
			"byteLength":1056,
			"byteOffset":56816,
			"target":34962
		},
		{
			"buffer":0,
			"byteLength":360,
			"byteOffset":57872,
			"target":34963
		},
		{
			"buffer":0,
			"byteLength":3624,
			"byteOffset":58232,
			"target":34962
		},
		{
			"buffer":0,
			"byteLength":3624,
			"byteOffset":61856,
			"target":34962
		},
		{
			"buffer":0,
			"byteLength":2416,
			"byteOffset":65480,
			"target":34962
		},
		{
			"buffer":0,
			"byteLength":1812,
			"byteOffset":67896,
			"target":34963
		},
		{
			"buffer":0,
			"byteLength":1728,
			"byteOffset":69708,
			"target":34962
		},
		{
			"buffer":0,
			"byteLength":1728,
			"byteOffset":71436,
			"target":34962
		},
		{
			"buffer":0,
			"byteLength":1152,
			"byteOffset":73164,
			"target":34962
		},
		{
			"buffer":0,
			"byteLength":2304,
			"byteOffset":74316,
			"target":34962
		},
		{
			"buffer":0,
			"byteLength":528,
			"byteOffset":76620,
			"target":34963
		},
		{
			"buffer":0,
			"byteLength":2304,
			"byteOffset":77148,
			"target":34962
		},
		{
			"buffer":0,
			"byteLength":2304,
			"byteOffset":79452,
			"target":34962
		},
		{
			"buffer":0,
			"byteLength":1536,
			"byteOffset":81756,
			"target":34962
		},
		{
			"buffer":0,
			"byteLength":3072,
			"byteOffset":83292,
			"target":34962
		},
		{
			"buffer":0,
			"byteLength":996,
			"byteOffset":86364,
			"target":34963
		},
		{
			"buffer":0,
			"byteLength":3108,
			"byteOffset":87360,
			"target":34962
		},
		{
			"buffer":0,
			"byteLength":3108,
			"byteOffset":90468,
			"target":34962
		},
		{
			"buffer":0,
			"byteLength":2072,
			"byteOffset":93576,
			"target":34962
		},
		{
			"buffer":0,
			"byteLength":1716,
			"byteOffset":95648,
			"target":34963
		},
		{
			"buffer":0,
			"byteLength":384,
			"byteOffset":97364,
			"target":34962
		},
		{
			"buffer":0,
			"byteLength":384,
			"byteOffset":97748,
			"target":34962
		},
		{
			"buffer":0,
			"byteLength":256,
			"byteOffset":98132,
			"target":34962
		},
		{
			"buffer":0,
			"byteLength":180,
			"byteOffset":98388,
			"target":34963
		},
		{
			"buffer":0,
			"byteLength":1632,
			"byteOffset":98568,
			"target":34962
		},
		{
			"buffer":0,
			"byteLength":1632,
			"byteOffset":100200,
			"target":34962
		},
		{
			"buffer":0,
			"byteLength":1088,
			"byteOffset":101832,
			"target":34962
		},
		{
			"buffer":0,
			"byteLength":516,
			"byteOffset":102920,
			"target":34963
		},
		{
			"buffer":0,
			"byteLength":96,
			"byteOffset":103436,
			"target":34962
		},
		{
			"buffer":0,
			"byteLength":96,
			"byteOffset":103532,
			"target":34962
		},
		{
			"buffer":0,
			"byteLength":64,
			"byteOffset":103628,
			"target":34962
		},
		{
			"buffer":0,
			"byteLength":36,
			"byteOffset":103692,
			"target":34963
		},
		{
			"buffer":0,
			"byteLength":96,
			"byteOffset":103728,
			"target":34962
		},
		{
			"buffer":0,
			"byteLength":96,
			"byteOffset":103824,
			"target":34962
		},
		{
			"buffer":0,
			"byteLength":64,
			"byteOffset":103920,
			"target":34962
		},
		{
			"buffer":0,
			"byteLength":36,
			"byteOffset":103984,
			"target":34963
		}
	],
	"buffers":[
		{
			"byteLength":104020,
			"uri":"lp_car-1a462a57b00c442aed580444dd6af378.bin"
		}
	]
}
