{
	"asset":{
		"generator":"Khronos glTF Blender I/O v5.0.21",
		"version":"2.0"
	},
	"scene":0,
	"scenes":[
		{
			"name":"Scene",
			"nodes":[
				0
			]
		}
	],
	"nodes":[
		{
			"mesh":0,
			"name":"Plane",
			"scale":[
				1000,
				1000,
				1000
			],
			"translation":[
				0,
				98.40162658691406,
				0
			]
		}
	],
	"meshes":[
		{
			"name":"Plane",
			"primitives":[
				{
					"attributes":{
						"POSITION":0,
						"NORMAL":1,
						"TEXCOORD_0":2,
						"TANGENT":3
					},
					"indices":4
				}
			]
		}
	],
	"accessors":[
		{
			"bufferView":0,
			"componentType":5126,
			"count":248119,
			"max":[
				0.9983409643173218,
				0.04995802044868469,
				0.9983409643173218
			],
			"min":[
				-0.9983409643173218,
				-0.05000000074505806,
				-0.9983409643173218
			],
			"type":"VEC3"
		},
		{
			"bufferView":1,
			"componentType":5126,
			"count":248119,
			"type":"VEC3"
		},
		{
			"bufferView":2,
			"componentType":5126,
			"count":248119,
			"type":"VEC2"
		},
		{
			"bufferView":3,
			"componentType":5126,
			"count":248119,
			"type":"VEC4"
		},
		{
			"bufferView":4,
			"componentType":5125,
			"count":1482564,
			"type":"SCALAR"
		}
	],
	"bufferViews":[
		{
			"buffer":0,
			"byteLength":2977428,
			"byteOffset":0,
			"target":34962
		},
		{
			"buffer":0,
			"byteLength":2977428,
			"byteOffset":2977428,
			"target":34962
		},
		{
			"buffer":0,
			"byteLength":1984952,
			"byteOffset":5954856,
			"target":34962
		},
		{
			"buffer":0,
			"byteLength":3969904,
			"byteOffset":7939808,
			"target":34962
		},
		{
			"buffer":0,
			"byteLength":5930256,
			"byteOffset":11909712,
			"target":34963
		}
	],
	"buffers":[
		{
			"byteLength":17839968,
			"uri":"map-ee66f80f65237a88ff7150353a7c7393.bin"
		}
	]
}
