{
	"asset":{
		"generator":"Khronos glTF Blender I/O v5.1.19",
		"version":"2.0"
	},
	"scene":0,
	"scenes":[
		{
			"name":"Scene",
			"nodes":[
				0,
				1,
				2,
				3
			]
		}
	],
	"nodes":[
		{
			"mesh":0,
			"name":"Plane",
			"scale":[
				1361.0511474609375,
				1368.4742431640625,
				1360.8067626953125
			],
			"translation":[
				0,
				94.85321044921875,
				0
			]
		},
		{
			"name":"NurbsPath_noimp",
			"scale":[
				0.6800000071525574,
				0.6800000071525574,
				0.6800000071525574
			],
			"translation":[
				0,
				88.4143295288086,
				0
			]
		},
		{
			"mesh":1,
			"name":"NurbsPath",
			"scale":[
				0.6800000071525574,
				0.6800000071525574,
				0.6800000071525574
			],
			"translation":[
				0,
				82.7885971069336,
				0
			]
		},
		{
			"mesh":2,
			"name":"Plane_col",
			"scale":[
				1361.0511474609375,
				1368.4742431640625,
				1360.8067626953125
			],
			"translation":[
				0,
				94.85321044921875,
				0
			]
		}
	],
	"meshes":[
		{
			"name":"Plane",
			"primitives":[
				{
					"attributes":{
						"POSITION":0,
						"NORMAL":1,
						"TEXCOORD_0":2,
						"TANGENT":3
					},
					"indices":4
				}
			]
		},
		{
			"name":"Mesh.001",
			"primitives":[
				{
					"attributes":{
						"POSITION":5,
						"NORMAL":6,
						"TEXCOORD_0":7,
						"TANGENT":8
					},
					"indices":9
				}
			]
		},
		{
			"name":"Plane.001",
			"primitives":[
				{
					"attributes":{
						"POSITION":10,
						"NORMAL":11,
						"TEXCOORD_0":12,
						"TANGENT":13
					},
					"indices":4
				}
			]
		}
	],
	"accessors":[
		{
			"bufferView":0,
			"componentType":5126,
			"count":105094,
			"max":[
				0.9992758631706238,
				0.024690378457307816,
				0.999580979347229
			],
			"min":[
				-0.9991797208786011,
				-0.02500000409781933,
				-0.9992334246635437
			],
			"type":"VEC3"
		},
		{
			"bufferView":1,
			"componentType":5126,
			"count":105094,
			"type":"VEC3"
		},
		{
			"bufferView":2,
			"componentType":5126,
			"count":105094,
			"type":"VEC2"
		},
		{
			"bufferView":3,
			"componentType":5126,
			"count":105094,
			"type":"VEC4"
		},
		{
			"bufferView":4,
			"componentType":5125,
			"count":624939,
			"type":"SCALAR"
		},
		{
			"bufferView":5,
			"componentType":5126,
			"count":38156,
			"max":[
				1727.1961669921875,
				38.389976501464844,
				1909.1806640625
			],
			"min":[
				-1688.9677734375,
				-39.11750793457031,
				-1684.048828125
			],
			"type":"VEC3"
		},
		{
			"bufferView":6,
			"componentType":5126,
			"count":38156,
			"type":"VEC3"
		},
		{
			"bufferView":7,
			"componentType":5126,
			"count":38156,
			"type":"VEC2"
		},
		{
			"bufferView":8,
			"componentType":5126,
			"count":38156,
			"type":"VEC4"
		},
		{
			"bufferView":9,
			"componentType":5123,
			"count":57240,
			"type":"SCALAR"
		},
		{
			"bufferView":10,
			"componentType":5126,
			"count":105094,
			"max":[
				0.9992758631706238,
				0.024690378457307816,
				0.999580979347229
			],
			"min":[
				-0.9991797208786011,
				-0.02500000409781933,
				-0.9992334246635437
			],
			"type":"VEC3"
		},
		{
			"bufferView":11,
			"componentType":5126,
			"count":105094,
			"type":"VEC3"
		},
		{
			"bufferView":12,
			"componentType":5126,
			"count":105094,
			"type":"VEC2"
		},
		{
			"bufferView":13,
			"componentType":5126,
			"count":105094,
			"type":"VEC4"
		}
	],
	"bufferViews":[
		{
			"buffer":0,
			"byteLength":1261128,
			"byteOffset":0,
			"target":34962
		},
		{
			"buffer":0,
			"byteLength":1261128,
			"byteOffset":1261128,
			"target":34962
		},
		{
			"buffer":0,
			"byteLength":840752,
			"byteOffset":2522256,
			"target":34962
		},
		{
			"buffer":0,
			"byteLength":1681504,
			"byteOffset":3363008,
			"target":34962
		},
		{
			"buffer":0,
			"byteLength":2499756,
			"byteOffset":5044512,
			"target":34963
		},
		{
			"buffer":0,
			"byteLength":457872,
			"byteOffset":7544268,
			"target":34962
		},
		{
			"buffer":0,
			"byteLength":457872,
			"byteOffset":8002140,
			"target":34962
		},
		{
			"buffer":0,
			"byteLength":305248,
			"byteOffset":8460012,
			"target":34962
		},
		{
			"buffer":0,
			"byteLength":610496,
			"byteOffset":8765260,
			"target":34962
		},
		{
			"buffer":0,
			"byteLength":114480,
			"byteOffset":9375756,
			"target":34963
		},
		{
			"buffer":0,
			"byteLength":1261128,
			"byteOffset":9490236,
			"target":34962
		},
		{
			"buffer":0,
			"byteLength":1261128,
			"byteOffset":10751364,
			"target":34962
		},
		{
			"buffer":0,
			"byteLength":840752,
			"byteOffset":12012492,
			"target":34962
		},
		{
			"buffer":0,
			"byteLength":1681504,
			"byteOffset":12853244,
			"target":34962
		}
	],
	"buffers":[
		{
			"byteLength":14534748,
			"uri":"map2-c7d8066afab14659eb4a0e9a66d58627.bin"
		}
	]
}
