{
	"asset":{
		"generator":"Khronos glTF Blender I/O v5.0.21",
		"version":"2.0"
	},
	"scene":0,
	"scenes":[
		{
			"name":"Scene",
			"nodes":[
				0
			]
		}
	],
	"nodes":[
		{
			"mesh":0,
			"name":"Cylinder",
			"rotation":[
				0,
				0,
				-0.7071068286895752,
				0.7071068286895752
			],
			"scale":[
				0.2750000059604645,
				0.10000000149011612,
				0.2750000059604645
			]
		}
	],
	"materials":[
		{
			"doubleSided":true,
			"name":"Metal",
			"pbrMetallicRoughness":{
				"baseColorFactor":[
					0.17012354731559753,
					0.17012354731559753,
					0.17012354731559753,
					1
				],
				"metallicFactor":0.32663315534591675,
				"roughnessFactor":0.5
			}
		},
		{
			"doubleSided":true,
			"name":"Rubber",
			"pbrMetallicRoughness":{
				"baseColorFactor":[
					0,
					0,
					0,
					1
				],
				"metallicFactor":0,
				"roughnessFactor":0.5
			}
		}
	],
	"meshes":[
		{
			"name":"Cylinder",
			"primitives":[
				{
					"attributes":{
						"POSITION":0,
						"NORMAL":1,
						"TEXCOORD_0":2
					},
					"indices":3,
					"material":0
				},
				{
					"attributes":{
						"POSITION":4,
						"NORMAL":5,
						"TEXCOORD_0":6
					},
					"indices":7,
					"material":1
				}
			]
		}
	],
	"accessors":[
		{
			"bufferView":0,
			"componentType":5126,
			"count":192,
			"max":[
				0.7131001949310303,
				1,
				0.7131001949310303
			],
			"min":[
				-0.7131001949310303,
				0.7363404035568237,
				-0.7131001949310303
			],
			"type":"VEC3"
		},
		{
			"bufferView":1,
			"componentType":5126,
			"count":192,
			"type":"VEC3"
		},
		{
			"bufferView":2,
			"componentType":5126,
			"count":192,
			"type":"VEC2"
		},
		{
			"bufferView":3,
			"componentType":5123,
			"count":708,
			"type":"SCALAR"
		},
		{
			"bufferView":4,
			"componentType":5126,
			"count":322,
			"max":[
				1,
				1,
				1
			],
			"min":[
				-1,
				-1,
				-1
			],
			"type":"VEC3"
		},
		{
			"bufferView":5,
			"componentType":5126,
			"count":322,
			"type":"VEC3"
		},
		{
			"bufferView":6,
			"componentType":5126,
			"count":322,
			"type":"VEC2"
		},
		{
			"bufferView":7,
			"componentType":5123,
			"count":1158,
			"type":"SCALAR"
		}
	],
	"bufferViews":[
		{
			"buffer":0,
			"byteLength":2304,
			"byteOffset":0,
			"target":34962
		},
		{
			"buffer":0,
			"byteLength":2304,
			"byteOffset":2304,
			"target":34962
		},
		{
			"buffer":0,
			"byteLength":1536,
			"byteOffset":4608,
			"target":34962
		},
		{
			"buffer":0,
			"byteLength":1416,
			"byteOffset":6144,
			"target":34963
		},
		{
			"buffer":0,
			"byteLength":3864,
			"byteOffset":7560,
			"target":34962
		},
		{
			"buffer":0,
			"byteLength":3864,
			"byteOffset":11424,
			"target":34962
		},
		{
			"buffer":0,
			"byteLength":2576,
			"byteOffset":15288,
			"target":34962
		},
		{
			"buffer":0,
			"byteLength":2316,
			"byteOffset":17864,
			"target":34963
		}
	],
	"buffers":[
		{
			"byteLength":20180,
			"uri":"polyWheel-06a02405f96266279a6a6add2943ba1e.bin"
		}
	]
}
