{
	"asset":{
		"generator":"Khronos glTF Blender I/O v5.1.19",
		"version":"2.0"
	},
	"scene":0,
	"scenes":[
		{
			"name":"Scene",
			"nodes":[
				0,
				1,
				2
			]
		}
	],
	"nodes":[
		{
			"mesh":0,
			"name":"Cube",
			"scale":[
				1,
				0.5,
				1.75
			]
		},
		{
			"mesh":1,
			"name":"Cylinder",
			"rotation":[
				0.7071068286895752,
				0,
				0,
				0.7071068286895752
			],
			"scale":[
				0.14562711119651794,
				0.14562711119651794,
				0.14562711119651794
			],
			"translation":[
				0.6842092275619507,
				-0.024436993524432182,
				1.6053129434585571
			]
		},
		{
			"mesh":2,
			"name":"Cube.001",
			"scale":[
				0.12756285071372986,
				0.12756285071372986,
				0.12756285071372986
			],
			"translation":[
				0.8772882223129272,
				0.10019171237945557,
				-1.7403860092163086
			]
		}
	],
	"materials":[
		{
			"doubleSided":true,
			"name":"Material",
			"pbrMetallicRoughness":{
				"baseColorFactor":[
					0.18494218587875366,
					0.8000074625015259,
					0.5398476123809814,
					1
				],
				"metallicFactor":0,
				"roughnessFactor":0.5
			}
		},
		{
			"doubleSided":true,
			"name":"Material.001",
			"pbrMetallicRoughness":{
				"baseColorFactor":[
					0.16192954778671265,
					0.41232818365097046,
					0.6543563604354858,
					1
				],
				"metallicFactor":0.23618090152740479,
				"roughnessFactor":0.2487437129020691
			}
		},
		{
			"doubleSided":true,
			"name":"Material.002",
			"pbrMetallicRoughness":{
				"baseColorFactor":[
					0.8000074625015259,
					0.7187857627868652,
					0.23384511470794678,
					1
				],
				"metallicFactor":0.39698493480682373,
				"roughnessFactor":0.12311556935310364
			}
		},
		{
			"doubleSided":true,
			"name":"Material.003",
			"pbrMetallicRoughness":{
				"baseColorFactor":[
					0.8000074625015259,
					0.09643414616584778,
					0.116673544049263,
					1
				],
				"metallicFactor":0.12562814354896545,
				"roughnessFactor":0.213567852973938
			}
		},
		{
			"doubleSided":true,
			"name":"Material.004",
			"pbrMetallicRoughness":{
				"baseColorFactor":[
					0.8000074625015259,
					0.3104258179664612,
					0.04975629597902298,
					1
				],
				"metallicFactor":0.36180904507637024,
				"roughnessFactor":0.14824119210243225
			}
		},
		{
			"doubleSided":true,
			"name":"Material.005",
			"pbrMetallicRoughness":{
				"baseColorFactor":[
					0.3583166003227234,
					0.3583166003227234,
					0.3583166003227234,
					1
				],
				"metallicFactor":0.2613065242767334,
				"roughnessFactor":0.12311556935310364
			}
		}
	],
	"meshes":[
		{
			"name":"Cube",
			"primitives":[
				{
					"attributes":{
						"POSITION":0,
						"NORMAL":1,
						"TEXCOORD_0":2,
						"TANGENT":3
					},
					"indices":4,
					"material":0
				},
				{
					"attributes":{
						"POSITION":5,
						"NORMAL":6,
						"TEXCOORD_0":7,
						"TANGENT":8
					},
					"indices":9,
					"material":1
				}
			]
		},
		{
			"name":"Cylinder",
			"primitives":[
				{
					"attributes":{
						"POSITION":10,
						"NORMAL":11,
						"TEXCOORD_0":12
					},
					"indices":13,
					"material":0
				},
				{
					"attributes":{
						"POSITION":14,
						"NORMAL":15,
						"TEXCOORD_0":16
					},
					"indices":17,
					"material":2
				}
			]
		},
		{
			"name":"Cube.001",
			"primitives":[
				{
					"attributes":{
						"POSITION":18,
						"NORMAL":19,
						"TEXCOORD_0":20
					},
					"indices":21,
					"material":3
				},
				{
					"attributes":{
						"POSITION":22,
						"NORMAL":23,
						"TEXCOORD_0":24
					},
					"indices":25,
					"material":4
				},
				{
					"attributes":{
						"POSITION":26,
						"NORMAL":27,
						"TEXCOORD_0":28
					},
					"indices":29,
					"material":5
				}
			]
		}
	],
	"accessors":[
		{
			"bufferView":0,
			"componentType":5126,
			"count":527,
			"max":[
				0.9976480007171631,
				2.043372869491577,
				0.992176353931427
			],
			"min":[
				-0.9976480007171631,
				-0.9959186315536499,
				-0.9936448931694031
			],
			"type":"VEC3"
		},
		{
			"bufferView":1,
			"componentType":5126,
			"count":527,
			"type":"VEC3"
		},
		{
			"bufferView":2,
			"componentType":5126,
			"count":527,
			"type":"VEC2"
		},
		{
			"bufferView":3,
			"componentType":5126,
			"count":527,
			"type":"VEC4"
		},
		{
			"bufferView":4,
			"componentType":5123,
			"count":2358,
			"type":"SCALAR"
		},
		{
			"bufferView":5,
			"componentType":5126,
			"count":86,
			"max":[
				0.9620004892349243,
				1.791394591331482,
				0.38438287377357483
			],
			"min":[
				-0.9620004892349243,
				0.691584587097168,
				-0.9524190425872803
			],
			"type":"VEC3"
		},
		{
			"bufferView":6,
			"componentType":5126,
			"count":86,
			"type":"VEC3"
		},
		{
			"bufferView":7,
			"componentType":5126,
			"count":86,
			"type":"VEC2"
		},
		{
			"bufferView":8,
			"componentType":5126,
			"count":86,
			"type":"VEC4"
		},
		{
			"bufferView":9,
			"componentType":5123,
			"count":192,
			"type":"SCALAR"
		},
		{
			"bufferView":10,
			"componentType":5126,
			"count":516,
			"max":[
				1,
				1,
				1
			],
			"min":[
				-10.396728515625,
				-1,
				-1
			],
			"type":"VEC3"
		},
		{
			"bufferView":11,
			"componentType":5126,
			"count":516,
			"type":"VEC3"
		},
		{
			"bufferView":12,
			"componentType":5126,
			"count":516,
			"type":"VEC2"
		},
		{
			"bufferView":13,
			"componentType":5123,
			"count":2100,
			"type":"SCALAR"
		},
		{
			"bufferView":14,
			"componentType":5126,
			"count":128,
			"max":[
				0.8023909330368042,
				1.0293495655059814,
				0.8023909330368042
			],
			"min":[
				-10.199119567871094,
				0.825072169303894,
				-0.8023909330368042
			],
			"type":"VEC3"
		},
		{
			"bufferView":15,
			"componentType":5126,
			"count":128,
			"type":"VEC3"
		},
		{
			"bufferView":16,
			"componentType":5126,
			"count":128,
			"type":"VEC2"
		},
		{
			"bufferView":17,
			"componentType":5123,
			"count":564,
			"type":"SCALAR"
		},
		{
			"bufferView":18,
			"componentType":5126,
			"count":86,
			"max":[
				0.9543142914772034,
				1.0047049522399902,
				2.0054843425750732
			],
			"min":[
				-14.708916664123535,
				-1,
				0.005484357010573149
			],
			"type":"VEC3"
		},
		{
			"bufferView":19,
			"componentType":5126,
			"count":86,
			"type":"VEC3"
		},
		{
			"bufferView":20,
			"componentType":5126,
			"count":86,
			"type":"VEC2"
		},
		{
			"bufferView":21,
			"componentType":5123,
			"count":336,
			"type":"SCALAR"
		},
		{
			"bufferView":22,
			"componentType":5126,
			"count":8,
			"max":[
				-1.4297659397125244,
				0.7616648077964783,
				0.005484402179718018
			],
			"min":[
				-12.324836730957031,
				-0.10050876438617706,
				0.005484371911734343
			],
			"type":"VEC3"
		},
		{
			"bufferView":23,
			"componentType":5126,
			"count":8,
			"type":"VEC3"
		},
		{
			"bufferView":24,
			"componentType":5126,
			"count":8,
			"type":"VEC2"
		},
		{
			"bufferView":25,
			"componentType":5123,
			"count":12,
			"type":"SCALAR"
		},
		{
			"bufferView":26,
			"componentType":5126,
			"count":8,
			"max":[
				-0.3237955868244171,
				0.7315548658370972,
				0.16445009410381317
			],
			"min":[
				-13.430807113647461,
				-0.10024601221084595,
				0.06691720336675644
			],
			"type":"VEC3"
		},
		{
			"bufferView":27,
			"componentType":5126,
			"count":8,
			"type":"VEC3"
		},
		{
			"bufferView":28,
			"componentType":5126,
			"count":8,
			"type":"VEC2"
		},
		{
			"bufferView":29,
			"componentType":5123,
			"count":12,
			"type":"SCALAR"
		}
	],
	"bufferViews":[
		{
			"buffer":0,
			"byteLength":6324,
			"byteOffset":0,
			"target":34962
		},
		{
			"buffer":0,
			"byteLength":6324,
			"byteOffset":6324,
			"target":34962
		},
		{
			"buffer":0,
			"byteLength":4216,
			"byteOffset":12648,
			"target":34962
		},
		{
			"buffer":0,
			"byteLength":8432,
			"byteOffset":16864,
			"target":34962
		},
		{
			"buffer":0,
			"byteLength":4716,
			"byteOffset":25296,
			"target":34963
		},
		{
			"buffer":0,
			"byteLength":1032,
			"byteOffset":30012,
			"target":34962
		},
		{
			"buffer":0,
			"byteLength":1032,
			"byteOffset":31044,
			"target":34962
		},
		{
			"buffer":0,
			"byteLength":688,
			"byteOffset":32076,
			"target":34962
		},
		{
			"buffer":0,
			"byteLength":1376,
			"byteOffset":32764,
			"target":34962
		},
		{
			"buffer":0,
			"byteLength":384,
			"byteOffset":34140,
			"target":34963
		},
		{
			"buffer":0,
			"byteLength":6192,
			"byteOffset":34524,
			"target":34962
		},
		{
			"buffer":0,
			"byteLength":6192,
			"byteOffset":40716,
			"target":34962
		},
		{
			"buffer":0,
			"byteLength":4128,
			"byteOffset":46908,
			"target":34962
		},
		{
			"buffer":0,
			"byteLength":4200,
			"byteOffset":51036,
			"target":34963
		},
		{
			"buffer":0,
			"byteLength":1536,
			"byteOffset":55236,
			"target":34962
		},
		{
			"buffer":0,
			"byteLength":1536,
			"byteOffset":56772,
			"target":34962
		},
		{
			"buffer":0,
			"byteLength":1024,
			"byteOffset":58308,
			"target":34962
		},
		{
			"buffer":0,
			"byteLength":1128,
			"byteOffset":59332,
			"target":34963
		},
		{
			"buffer":0,
			"byteLength":1032,
			"byteOffset":60460,
			"target":34962
		},
		{
			"buffer":0,
			"byteLength":1032,
			"byteOffset":61492,
			"target":34962
		},
		{
			"buffer":0,
			"byteLength":688,
			"byteOffset":62524,
			"target":34962
		},
		{
			"buffer":0,
			"byteLength":672,
			"byteOffset":63212,
			"target":34963
		},
		{
			"buffer":0,
			"byteLength":96,
			"byteOffset":63884,
			"target":34962
		},
		{
			"buffer":0,
			"byteLength":96,
			"byteOffset":63980,
			"target":34962
		},
		{
			"buffer":0,
			"byteLength":64,
			"byteOffset":64076,
			"target":34962
		},
		{
			"buffer":0,
			"byteLength":24,
			"byteOffset":64140,
			"target":34963
		},
		{
			"buffer":0,
			"byteLength":96,
			"byteOffset":64164,
			"target":34962
		},
		{
			"buffer":0,
			"byteLength":96,
			"byteOffset":64260,
			"target":34962
		},
		{
			"buffer":0,
			"byteLength":64,
			"byteOffset":64356,
			"target":34962
		},
		{
			"buffer":0,
			"byteLength":24,
			"byteOffset":64420,
			"target":34963
		}
	],
	"buffers":[
		{
			"byteLength":64444,
			"uri":"polyCar-0a481999c8bcf11100b854ecf815151f.bin"
		}
	]
}
