{
	"asset":{
		"generator":"Khronos glTF Blender I/O v5.0.21",
		"version":"2.0"
	},
	"scene":0,
	"scenes":[
		{
			"name":"Scene",
			"nodes":[
				0
			]
		}
	],
	"nodes":[
		{
			"mesh":0,
			"name":"Cube",
			"scale":[
				1,
				0.5,
				1.75
			]
		}
	],
	"materials":[
		{
			"doubleSided":true,
			"name":"Material",
			"pbrMetallicRoughness":{
				"baseColorFactor":[
					0.18494218587875366,
					0.8000074625015259,
					0.5398476123809814,
					1
				],
				"metallicFactor":0,
				"roughnessFactor":0.5
			}
		}
	],
	"meshes":[
		{
			"name":"Mesh",
			"primitives":[
				{
					"attributes":{
						"POSITION":0,
						"NORMAL":1,
						"TEXCOORD_0":2,
						"TANGENT":3
					},
					"indices":4,
					"material":0
				}
			]
		}
	],
	"accessors":[
		{
			"bufferView":0,
			"componentType":5126,
			"count":698,
			"max":[
				0.9976480603218079,
				2.043372869491577,
				0.992176353931427
			],
			"min":[
				-0.9976481199264526,
				-0.9959186315536499,
				-0.9936448931694031
			],
			"type":"VEC3"
		},
		{
			"bufferView":1,
			"componentType":5126,
			"count":698,
			"type":"VEC3"
		},
		{
			"bufferView":2,
			"componentType":5126,
			"count":698,
			"type":"VEC2"
		},
		{
			"bufferView":3,
			"componentType":5126,
			"count":698,
			"type":"VEC4"
		},
		{
			"bufferView":4,
			"componentType":5123,
			"count":1920,
			"type":"SCALAR"
		}
	],
	"bufferViews":[
		{
			"buffer":0,
			"byteLength":8376,
			"byteOffset":0,
			"target":34962
		},
		{
			"buffer":0,
			"byteLength":8376,
			"byteOffset":8376,
			"target":34962
		},
		{
			"buffer":0,
			"byteLength":5584,
			"byteOffset":16752,
			"target":34962
		},
		{
			"buffer":0,
			"byteLength":11168,
			"byteOffset":22336,
			"target":34962
		},
		{
			"buffer":0,
			"byteLength":3840,
			"byteOffset":33504,
			"target":34963
		}
	],
	"buffers":[
		{
			"byteLength":37344,
			"uri":"polyCar-9f7af8af7acc56d6ae1ee5d243c644f4.bin"
		}
	]
}
